<mxfile host="app.diagrams.net" modified="2022-12-29T16:45:55.686Z" agent="5.0 (Windows NT 10.0; Win64; x64) AppleWebKit/537.36 (KHTML, like Gecko) Chrome/108.0.0.0 Safari/537.36" etag="To6dJ27XsVCqGK5vU5XN" version="20.7.4" type="github">
  <diagram name="Page-1" id="197159a0-c6a4-9194-75a8-e4174976684c">
    <mxGraphModel dx="3718.5" dy="1087" grid="1" gridSize="10" guides="1" tooltips="1" connect="1" arrows="1" fold="1" page="1" pageScale="1.5" pageWidth="1169" pageHeight="826" background="none" math="0" shadow="0">
      <root>
        <mxCell id="0" style=";html=1;" />
        <mxCell id="1" style=";html=1;" parent="0" />
        <mxCell id="1257a543d1cacc4b-45" value="Production site 2" style="whiteSpace=wrap;html=1;fillColor=#dae8fc;fontSize=14;strokeColor=none;verticalAlign=bottom;" parent="1" vertex="1">
          <mxGeometry x="252" y="643" width="660" height="260" as="geometry" />
        </mxCell>
        <mxCell id="1257a543d1cacc4b-9" value="WAN" style="shadow=0;dashed=0;html=1;strokeColor=none;fillColor=#4495D1;labelPosition=center;verticalLabelPosition=middle;verticalAlign=middle;shape=mxgraph.veeam.2d.cloud;fontSize=14;align=center;" parent="1" vertex="1">
          <mxGeometry x="922" y="583" width="66" height="46" as="geometry" />
        </mxCell>
        <mxCell id="1257a543d1cacc4b-31" style="edgeStyle=elbowEdgeStyle;rounded=0;html=1;startSize=10;endSize=10;jettySize=auto;orthogonalLoop=1;fontSize=14;endArrow=none;endFill=0;strokeColor=#808080;elbow=vertical;" parent="1" source="1257a543d1cacc4b-21" target="1257a543d1cacc4b-22" edge="1">
          <mxGeometry relative="1" as="geometry" />
        </mxCell>
        <mxCell id="1257a543d1cacc4b-21" value="" style="shadow=0;dashed=0;html=1;strokeColor=none;fillColor=#4495D1;labelPosition=center;verticalLabelPosition=bottom;verticalAlign=top;shape=mxgraph.veeam.2d.backup_repository_2;fontSize=14;" parent="1" vertex="1">
          <mxGeometry x="269" y="690" width="58" height="50" as="geometry" />
        </mxCell>
        <mxCell id="1257a543d1cacc4b-30" style="edgeStyle=elbowEdgeStyle;rounded=0;html=1;startSize=10;endSize=10;jettySize=auto;orthogonalLoop=1;fontSize=14;endArrow=none;endFill=0;strokeColor=#808080;elbow=vertical;" parent="1" source="1257a543d1cacc4b-22" target="1257a543d1cacc4b-23" edge="1">
          <mxGeometry relative="1" as="geometry" />
        </mxCell>
        <mxCell id="1257a543d1cacc4b-22" value="Source ESX host" style="shadow=0;dashed=0;html=1;strokeColor=none;fillColor=#4495D1;labelPosition=center;verticalLabelPosition=top;verticalAlign=bottom;shape=mxgraph.veeam.2d.vmware_host;fontSize=14;align=center;" parent="1" vertex="1">
          <mxGeometry x="542" y="690" width="124" height="120" as="geometry" />
        </mxCell>
        <mxCell id="1257a543d1cacc4b-27" style="rounded=0;html=1;startSize=10;endSize=10;jettySize=auto;orthogonalLoop=1;fontSize=14;endArrow=none;endFill=0;strokeColor=#808080;" parent="1" source="1257a543d1cacc4b-23" target="1257a543d1cacc4b-9" edge="1">
          <mxGeometry relative="1" as="geometry" />
        </mxCell>
        <mxCell id="1257a543d1cacc4b-23" value="ProxMox&amp;nbsp;&lt;div&gt;backup&amp;nbsp;&lt;span&gt;proxy&lt;/span&gt;&lt;/div&gt;" style="shadow=0;dashed=0;html=1;strokeColor=none;fillColor=#4495D1;labelPosition=center;verticalLabelPosition=top;verticalAlign=bottom;shape=mxgraph.veeam.2d.proxy;fontSize=14;align=center;" parent="1" vertex="1">
          <mxGeometry x="822" y="690" width="46" height="46" as="geometry" />
        </mxCell>
        <mxCell id="1257a543d1cacc4b-32" style="edgeStyle=orthogonalEdgeStyle;rounded=0;html=1;startSize=10;endSize=10;jettySize=auto;orthogonalLoop=1;fontSize=14;endArrow=none;endFill=0;strokeColor=#808080;" parent="1" source="1257a543d1cacc4b-28" target="1257a543d1cacc4b-21" edge="1">
          <mxGeometry relative="1" as="geometry">
            <mxPoint x="312" y="843" as="targetPoint" />
            <Array as="points">
              <mxPoint x="469" y="853" />
              <mxPoint x="298" y="853" />
            </Array>
          </mxGeometry>
        </mxCell>
        <mxCell id="1257a543d1cacc4b-37" style="edgeStyle=orthogonalEdgeStyle;rounded=0;html=1;startSize=10;endSize=10;jettySize=auto;orthogonalLoop=1;fontSize=14;endArrow=none;endFill=0;strokeColor=#808080;" parent="1" source="1257a543d1cacc4b-28" target="1257a543d1cacc4b-22" edge="1">
          <mxGeometry relative="1" as="geometry">
            <Array as="points">
              <mxPoint x="469" y="853" />
              <mxPoint x="605" y="853" />
            </Array>
          </mxGeometry>
        </mxCell>
        <mxCell id="1257a543d1cacc4b-38" style="edgeStyle=orthogonalEdgeStyle;rounded=0;html=1;entryX=0.202;entryY=1.004;entryPerimeter=0;startSize=10;endSize=10;jettySize=auto;orthogonalLoop=1;fontSize=14;endArrow=none;endFill=0;strokeColor=#808080;" parent="1" source="1257a543d1cacc4b-28" target="1257a543d1cacc4b-23" edge="1">
          <mxGeometry relative="1" as="geometry">
            <Array as="points">
              <mxPoint x="516" y="853" />
              <mxPoint x="845" y="853" />
              <mxPoint x="845" y="737" />
            </Array>
          </mxGeometry>
        </mxCell>
        <mxCell id="1257a543d1cacc4b-28" value="Veeam backup server" style="shadow=0;dashed=0;html=1;strokeColor=none;fillColor=#4495D1;labelPosition=center;verticalLabelPosition=bottom;verticalAlign=top;shape=mxgraph.veeam.2d.veeam_backup_and_replication_server;fontSize=14;" parent="1" vertex="1">
          <mxGeometry x="432" y="963" width="74" height="72" as="geometry" />
        </mxCell>
        <mxCell id="1257a543d1cacc4b-40" value="Transport&lt;div&gt;service&lt;/div&gt;" style="shadow=0;dashed=0;html=1;strokeColor=none;fillColor=#4495D1;labelPosition=right;verticalLabelPosition=middle;verticalAlign=middle;shape=mxgraph.veeam.2d.data_mover;fontSize=14;align=left;" parent="1" vertex="1">
          <mxGeometry x="312" y="763" width="38" height="38" as="geometry" />
        </mxCell>
        <mxCell id="1257a543d1cacc4b-41" value="Transport&lt;div&gt;service&lt;/div&gt;" style="shadow=0;dashed=0;html=1;strokeColor=none;fillColor=#4495D1;labelPosition=left;verticalLabelPosition=middle;verticalAlign=middle;shape=mxgraph.veeam.2d.data_mover;fontSize=14;align=right;" parent="1" vertex="1">
          <mxGeometry x="792" y="763" width="38" height="38" as="geometry" />
        </mxCell>
        <mxCell id="1257a543d1cacc4b-52" value="Title" style="text;strokeColor=none;fillColor=none;html=1;fontSize=24;fontStyle=1;verticalAlign=middle;align=center;" parent="1" vertex="1">
          <mxGeometry x="160" y="60" width="1420" height="40" as="geometry" />
        </mxCell>
        <mxCell id="JXPg3g7SItw_KYU3tw7w-1" value="" style="pointerEvents=1;shadow=0;dashed=0;html=1;strokeColor=none;fillColor=#4495D1;labelPosition=center;verticalLabelPosition=bottom;verticalAlign=top;align=center;outlineConnect=0;shape=mxgraph.veeam.virtual_host;" parent="1" vertex="1">
          <mxGeometry x="542" y="690" width="128" height="120" as="geometry" />
        </mxCell>
        <mxCell id="JXPg3g7SItw_KYU3tw7w-4" value="Production site 1" style="whiteSpace=wrap;html=1;fillColor=#dae8fc;fontSize=14;strokeColor=none;verticalAlign=bottom;" parent="1" vertex="1">
          <mxGeometry x="-1290" y="680" width="660" height="260" as="geometry" />
        </mxCell>
        <mxCell id="JXPg3g7SItw_KYU3tw7w-5" value="WAN" style="shadow=0;dashed=0;html=1;strokeColor=none;fillColor=#4495D1;labelPosition=center;verticalLabelPosition=middle;verticalAlign=middle;shape=mxgraph.veeam.2d.cloud;fontSize=14;align=center;" parent="1" vertex="1">
          <mxGeometry x="-730" y="610" width="66" height="46" as="geometry" />
        </mxCell>
        <mxCell id="JXPg3g7SItw_KYU3tw7w-6" style="edgeStyle=elbowEdgeStyle;rounded=0;html=1;startSize=10;endSize=10;jettySize=auto;orthogonalLoop=1;fontSize=14;endArrow=none;endFill=0;strokeColor=#808080;elbow=vertical;" parent="1" source="JXPg3g7SItw_KYU3tw7w-7" target="JXPg3g7SItw_KYU3tw7w-9" edge="1">
          <mxGeometry relative="1" as="geometry" />
        </mxCell>
        <mxCell id="JXPg3g7SItw_KYU3tw7w-7" value="" style="shadow=0;dashed=0;html=1;strokeColor=none;fillColor=#4495D1;labelPosition=center;verticalLabelPosition=bottom;verticalAlign=top;shape=mxgraph.veeam.2d.backup_repository_2;fontSize=14;" parent="1" vertex="1">
          <mxGeometry x="-1273" y="727" width="58" height="50" as="geometry" />
        </mxCell>
        <mxCell id="JXPg3g7SItw_KYU3tw7w-8" style="edgeStyle=elbowEdgeStyle;rounded=0;html=1;startSize=10;endSize=10;jettySize=auto;orthogonalLoop=1;fontSize=14;endArrow=none;endFill=0;strokeColor=#808080;elbow=vertical;" parent="1" source="JXPg3g7SItw_KYU3tw7w-9" target="JXPg3g7SItw_KYU3tw7w-11" edge="1">
          <mxGeometry relative="1" as="geometry" />
        </mxCell>
        <mxCell id="JXPg3g7SItw_KYU3tw7w-9" value="Source ESX host" style="shadow=0;dashed=0;html=1;strokeColor=none;fillColor=#4495D1;labelPosition=center;verticalLabelPosition=top;verticalAlign=bottom;shape=mxgraph.veeam.2d.vmware_host;fontSize=14;align=center;" parent="1" vertex="1">
          <mxGeometry x="-1000" y="727" width="124" height="120" as="geometry" />
        </mxCell>
        <mxCell id="JXPg3g7SItw_KYU3tw7w-10" style="rounded=0;html=1;startSize=10;endSize=10;jettySize=auto;orthogonalLoop=1;fontSize=14;endArrow=none;endFill=0;strokeColor=#808080;" parent="1" source="JXPg3g7SItw_KYU3tw7w-11" target="JXPg3g7SItw_KYU3tw7w-5" edge="1">
          <mxGeometry relative="1" as="geometry" />
        </mxCell>
        <mxCell id="JXPg3g7SItw_KYU3tw7w-11" value="ProxMox&amp;nbsp;&lt;div&gt;backup&amp;nbsp;&lt;span&gt;proxy&lt;/span&gt;&lt;/div&gt;" style="shadow=0;dashed=0;html=1;strokeColor=none;fillColor=#4495D1;labelPosition=center;verticalLabelPosition=top;verticalAlign=bottom;shape=mxgraph.veeam.2d.proxy;fontSize=14;align=center;" parent="1" vertex="1">
          <mxGeometry x="-720" y="727" width="46" height="46" as="geometry" />
        </mxCell>
        <mxCell id="JXPg3g7SItw_KYU3tw7w-16" style="edgeStyle=orthogonalEdgeStyle;rounded=0;html=1;startSize=10;endSize=10;jettySize=auto;orthogonalLoop=1;fontSize=14;endArrow=none;endFill=0;strokeColor=#808080;" parent="1" source="JXPg3g7SItw_KYU3tw7w-19" target="JXPg3g7SItw_KYU3tw7w-7" edge="1">
          <mxGeometry relative="1" as="geometry">
            <mxPoint x="-1230" y="880" as="targetPoint" />
            <Array as="points">
              <mxPoint x="-1073" y="890" />
              <mxPoint x="-1244" y="890" />
            </Array>
          </mxGeometry>
        </mxCell>
        <mxCell id="JXPg3g7SItw_KYU3tw7w-17" style="edgeStyle=orthogonalEdgeStyle;rounded=0;html=1;startSize=10;endSize=10;jettySize=auto;orthogonalLoop=1;fontSize=14;endArrow=none;endFill=0;strokeColor=#808080;" parent="1" source="JXPg3g7SItw_KYU3tw7w-19" target="JXPg3g7SItw_KYU3tw7w-9" edge="1">
          <mxGeometry relative="1" as="geometry">
            <Array as="points">
              <mxPoint x="-1073" y="890" />
              <mxPoint x="-937" y="890" />
            </Array>
          </mxGeometry>
        </mxCell>
        <mxCell id="JXPg3g7SItw_KYU3tw7w-18" style="edgeStyle=orthogonalEdgeStyle;rounded=0;html=1;entryX=0.202;entryY=1.004;entryPerimeter=0;startSize=10;endSize=10;jettySize=auto;orthogonalLoop=1;fontSize=14;endArrow=none;endFill=0;strokeColor=#808080;" parent="1" source="JXPg3g7SItw_KYU3tw7w-19" target="JXPg3g7SItw_KYU3tw7w-11" edge="1">
          <mxGeometry relative="1" as="geometry">
            <Array as="points">
              <mxPoint x="-1026" y="890" />
              <mxPoint x="-697" y="890" />
              <mxPoint x="-697" y="774" />
            </Array>
          </mxGeometry>
        </mxCell>
        <mxCell id="JXPg3g7SItw_KYU3tw7w-19" value="Veeam backup server" style="shadow=0;dashed=0;html=1;strokeColor=none;fillColor=#4495D1;labelPosition=center;verticalLabelPosition=bottom;verticalAlign=top;shape=mxgraph.veeam.2d.veeam_backup_and_replication_server;fontSize=14;" parent="1" vertex="1">
          <mxGeometry x="-1110" y="1000" width="74" height="72" as="geometry" />
        </mxCell>
        <mxCell id="JXPg3g7SItw_KYU3tw7w-23" value="Transport&lt;div&gt;service&lt;/div&gt;" style="shadow=0;dashed=0;html=1;strokeColor=none;fillColor=#4495D1;labelPosition=right;verticalLabelPosition=middle;verticalAlign=middle;shape=mxgraph.veeam.2d.data_mover;fontSize=14;align=left;" parent="1" vertex="1">
          <mxGeometry x="-1230" y="800" width="38" height="38" as="geometry" />
        </mxCell>
        <mxCell id="JXPg3g7SItw_KYU3tw7w-24" value="Transport&lt;div&gt;service&lt;/div&gt;" style="shadow=0;dashed=0;html=1;strokeColor=none;fillColor=#4495D1;labelPosition=left;verticalLabelPosition=middle;verticalAlign=middle;shape=mxgraph.veeam.2d.data_mover;fontSize=14;align=right;" parent="1" vertex="1">
          <mxGeometry x="-750" y="800" width="38" height="38" as="geometry" />
        </mxCell>
        <mxCell id="JXPg3g7SItw_KYU3tw7w-28" value="" style="pointerEvents=1;shadow=0;dashed=0;html=1;strokeColor=none;fillColor=#4495D1;labelPosition=center;verticalLabelPosition=bottom;verticalAlign=top;align=center;outlineConnect=0;shape=mxgraph.veeam.virtual_host;" parent="1" vertex="1">
          <mxGeometry x="-1000" y="727" width="128" height="120" as="geometry" />
        </mxCell>
        <mxCell id="JXPg3g7SItw_KYU3tw7w-30" value="Production site 1" style="whiteSpace=wrap;html=1;fillColor=#dae8fc;fontSize=14;strokeColor=none;verticalAlign=bottom;" parent="1" vertex="1">
          <mxGeometry x="252" y="288" width="660" height="260" as="geometry" />
        </mxCell>
        <mxCell id="JXPg3g7SItw_KYU3tw7w-31" value="WAN" style="shadow=0;dashed=0;html=1;strokeColor=none;fillColor=#4495D1;labelPosition=center;verticalLabelPosition=middle;verticalAlign=middle;shape=mxgraph.veeam.2d.cloud;fontSize=14;align=center;" parent="1" vertex="1">
          <mxGeometry x="922" y="583" width="66" height="46" as="geometry" />
        </mxCell>
        <mxCell id="JXPg3g7SItw_KYU3tw7w-32" style="edgeStyle=elbowEdgeStyle;rounded=0;html=1;startSize=10;endSize=10;jettySize=auto;orthogonalLoop=1;fontSize=14;endArrow=none;endFill=0;strokeColor=#808080;elbow=vertical;" parent="1" source="JXPg3g7SItw_KYU3tw7w-33" target="JXPg3g7SItw_KYU3tw7w-35" edge="1">
          <mxGeometry relative="1" as="geometry" />
        </mxCell>
        <mxCell id="JXPg3g7SItw_KYU3tw7w-33" value="" style="shadow=0;dashed=0;html=1;strokeColor=none;fillColor=#4495D1;labelPosition=center;verticalLabelPosition=bottom;verticalAlign=top;shape=mxgraph.veeam.2d.backup_repository_2;fontSize=14;" parent="1" vertex="1">
          <mxGeometry x="269" y="335" width="58" height="50" as="geometry" />
        </mxCell>
        <mxCell id="JXPg3g7SItw_KYU3tw7w-34" style="edgeStyle=elbowEdgeStyle;rounded=0;html=1;startSize=10;endSize=10;jettySize=auto;orthogonalLoop=1;fontSize=14;endArrow=none;endFill=0;strokeColor=#808080;elbow=vertical;" parent="1" source="JXPg3g7SItw_KYU3tw7w-35" target="JXPg3g7SItw_KYU3tw7w-37" edge="1">
          <mxGeometry relative="1" as="geometry" />
        </mxCell>
        <mxCell id="JXPg3g7SItw_KYU3tw7w-35" value="Source ESX host" style="shadow=0;dashed=0;html=1;strokeColor=none;fillColor=#4495D1;labelPosition=center;verticalLabelPosition=top;verticalAlign=bottom;shape=mxgraph.veeam.2d.vmware_host;fontSize=14;align=center;" parent="1" vertex="1">
          <mxGeometry x="542" y="335" width="124" height="120" as="geometry" />
        </mxCell>
        <mxCell id="JXPg3g7SItw_KYU3tw7w-36" style="rounded=0;html=1;startSize=10;endSize=10;jettySize=auto;orthogonalLoop=1;fontSize=14;endArrow=none;endFill=0;strokeColor=#808080;" parent="1" source="JXPg3g7SItw_KYU3tw7w-37" target="JXPg3g7SItw_KYU3tw7w-31" edge="1">
          <mxGeometry relative="1" as="geometry" />
        </mxCell>
        <mxCell id="JXPg3g7SItw_KYU3tw7w-37" value="ProxMox&amp;nbsp;&lt;div&gt;backup&amp;nbsp;&lt;span&gt;proxy&lt;/span&gt;&lt;/div&gt;" style="shadow=0;dashed=0;html=1;strokeColor=none;fillColor=#4495D1;labelPosition=center;verticalLabelPosition=top;verticalAlign=bottom;shape=mxgraph.veeam.2d.proxy;fontSize=14;align=center;" parent="1" vertex="1">
          <mxGeometry x="822" y="335" width="46" height="46" as="geometry" />
        </mxCell>
        <mxCell id="JXPg3g7SItw_KYU3tw7w-38" style="edgeStyle=orthogonalEdgeStyle;rounded=0;html=1;startSize=10;endSize=10;jettySize=auto;orthogonalLoop=1;fontSize=14;endArrow=none;endFill=0;strokeColor=#808080;" parent="1" source="JXPg3g7SItw_KYU3tw7w-41" target="JXPg3g7SItw_KYU3tw7w-33" edge="1">
          <mxGeometry relative="1" as="geometry">
            <mxPoint x="312" y="488" as="targetPoint" />
            <Array as="points">
              <mxPoint x="469" y="498" />
              <mxPoint x="298" y="498" />
            </Array>
          </mxGeometry>
        </mxCell>
        <mxCell id="JXPg3g7SItw_KYU3tw7w-39" style="edgeStyle=orthogonalEdgeStyle;rounded=0;html=1;startSize=10;endSize=10;jettySize=auto;orthogonalLoop=1;fontSize=14;endArrow=none;endFill=0;strokeColor=#808080;" parent="1" source="JXPg3g7SItw_KYU3tw7w-41" target="JXPg3g7SItw_KYU3tw7w-35" edge="1">
          <mxGeometry relative="1" as="geometry">
            <Array as="points">
              <mxPoint x="469" y="498" />
              <mxPoint x="605" y="498" />
            </Array>
          </mxGeometry>
        </mxCell>
        <mxCell id="JXPg3g7SItw_KYU3tw7w-40" style="edgeStyle=orthogonalEdgeStyle;rounded=0;html=1;entryX=0.202;entryY=1.004;entryPerimeter=0;startSize=10;endSize=10;jettySize=auto;orthogonalLoop=1;fontSize=14;endArrow=none;endFill=0;strokeColor=#808080;" parent="1" source="JXPg3g7SItw_KYU3tw7w-41" target="JXPg3g7SItw_KYU3tw7w-37" edge="1">
          <mxGeometry relative="1" as="geometry">
            <Array as="points">
              <mxPoint x="516" y="498" />
              <mxPoint x="845" y="498" />
              <mxPoint x="845" y="382" />
            </Array>
          </mxGeometry>
        </mxCell>
        <mxCell id="JXPg3g7SItw_KYU3tw7w-41" value="Veeam backup server" style="shadow=0;dashed=0;html=1;strokeColor=none;fillColor=#4495D1;labelPosition=center;verticalLabelPosition=bottom;verticalAlign=top;shape=mxgraph.veeam.2d.veeam_backup_and_replication_server;fontSize=14;" parent="1" vertex="1">
          <mxGeometry x="130" y="583" width="74" height="72" as="geometry" />
        </mxCell>
        <mxCell id="JXPg3g7SItw_KYU3tw7w-42" value="Transport&lt;div&gt;service&lt;/div&gt;" style="shadow=0;dashed=0;html=1;strokeColor=none;fillColor=#4495D1;labelPosition=right;verticalLabelPosition=middle;verticalAlign=middle;shape=mxgraph.veeam.2d.data_mover;fontSize=14;align=left;" parent="1" vertex="1">
          <mxGeometry x="312" y="408" width="38" height="38" as="geometry" />
        </mxCell>
        <mxCell id="JXPg3g7SItw_KYU3tw7w-43" value="Transport&lt;div&gt;service&lt;/div&gt;" style="shadow=0;dashed=0;html=1;strokeColor=none;fillColor=#4495D1;labelPosition=left;verticalLabelPosition=middle;verticalAlign=middle;shape=mxgraph.veeam.2d.data_mover;fontSize=14;align=right;" parent="1" vertex="1">
          <mxGeometry x="792" y="408" width="38" height="38" as="geometry" />
        </mxCell>
        <mxCell id="JXPg3g7SItw_KYU3tw7w-44" value="" style="pointerEvents=1;shadow=0;dashed=0;html=1;strokeColor=none;fillColor=#4495D1;labelPosition=center;verticalLabelPosition=bottom;verticalAlign=top;align=center;outlineConnect=0;shape=mxgraph.veeam.virtual_host;" parent="1" vertex="1">
          <mxGeometry x="542" y="335" width="128" height="120" as="geometry" />
        </mxCell>
        <mxCell id="DtBhPyc8xqR74ojFfDN1-1" value="Production site 4" style="whiteSpace=wrap;html=1;fillColor=#dae8fc;fontSize=14;strokeColor=none;verticalAlign=bottom;" vertex="1" parent="1">
          <mxGeometry x="998.5" y="288" width="660" height="260" as="geometry" />
        </mxCell>
        <mxCell id="DtBhPyc8xqR74ojFfDN1-2" style="edgeStyle=elbowEdgeStyle;rounded=0;html=1;startSize=10;endSize=10;jettySize=auto;orthogonalLoop=1;fontSize=14;endArrow=none;endFill=0;strokeColor=#808080;elbow=vertical;" edge="1" parent="1" target="DtBhPyc8xqR74ojFfDN1-5">
          <mxGeometry relative="1" as="geometry">
            <mxPoint x="1073.500000000001" y="359.66666666666674" as="sourcePoint" />
          </mxGeometry>
        </mxCell>
        <mxCell id="DtBhPyc8xqR74ojFfDN1-4" style="edgeStyle=elbowEdgeStyle;rounded=0;html=1;startSize=10;endSize=10;jettySize=auto;orthogonalLoop=1;fontSize=14;endArrow=none;endFill=0;strokeColor=#808080;elbow=vertical;" edge="1" parent="1" source="DtBhPyc8xqR74ojFfDN1-5">
          <mxGeometry relative="1" as="geometry">
            <mxPoint x="1568.5" y="358" as="targetPoint" />
          </mxGeometry>
        </mxCell>
        <mxCell id="DtBhPyc8xqR74ojFfDN1-5" value="Source ESX host" style="shadow=0;dashed=0;html=1;strokeColor=none;fillColor=#4495D1;labelPosition=center;verticalLabelPosition=top;verticalAlign=bottom;shape=mxgraph.veeam.2d.vmware_host;fontSize=14;align=center;" vertex="1" parent="1">
          <mxGeometry x="1288.5" y="335" width="124" height="120" as="geometry" />
        </mxCell>
        <mxCell id="DtBhPyc8xqR74ojFfDN1-7" style="edgeStyle=orthogonalEdgeStyle;rounded=0;html=1;startSize=10;endSize=10;jettySize=auto;orthogonalLoop=1;fontSize=14;endArrow=none;endFill=0;strokeColor=#808080;" edge="1" parent="1" source="DtBhPyc8xqR74ojFfDN1-10">
          <mxGeometry relative="1" as="geometry">
            <mxPoint x="1044.500000000001" y="385" as="targetPoint" />
            <Array as="points">
              <mxPoint x="1215.5" y="498" />
              <mxPoint x="1044.5" y="498" />
            </Array>
          </mxGeometry>
        </mxCell>
        <mxCell id="DtBhPyc8xqR74ojFfDN1-8" style="edgeStyle=orthogonalEdgeStyle;rounded=0;html=1;startSize=10;endSize=10;jettySize=auto;orthogonalLoop=1;fontSize=14;endArrow=none;endFill=0;strokeColor=#808080;" edge="1" parent="1" source="DtBhPyc8xqR74ojFfDN1-10" target="DtBhPyc8xqR74ojFfDN1-5">
          <mxGeometry relative="1" as="geometry">
            <Array as="points">
              <mxPoint x="1215.5" y="498" />
              <mxPoint x="1351.5" y="498" />
            </Array>
          </mxGeometry>
        </mxCell>
        <mxCell id="DtBhPyc8xqR74ojFfDN1-9" style="edgeStyle=orthogonalEdgeStyle;rounded=0;html=1;entryX=0.202;entryY=1.004;entryPerimeter=0;startSize=10;endSize=10;jettySize=auto;orthogonalLoop=1;fontSize=14;endArrow=none;endFill=0;strokeColor=#808080;" edge="1" parent="1" source="DtBhPyc8xqR74ojFfDN1-10">
          <mxGeometry relative="1" as="geometry">
            <Array as="points">
              <mxPoint x="1262.5" y="498" />
              <mxPoint x="1591.5" y="498" />
              <mxPoint x="1591.5" y="382" />
            </Array>
            <mxPoint x="1577.7920000000004" y="381.18399999999997" as="targetPoint" />
          </mxGeometry>
        </mxCell>
        <mxCell id="DtBhPyc8xqR74ojFfDN1-10" value="Veeam backup server" style="shadow=0;dashed=0;html=1;strokeColor=none;fillColor=#4495D1;labelPosition=center;verticalLabelPosition=bottom;verticalAlign=top;shape=mxgraph.veeam.2d.veeam_backup_and_replication_server;fontSize=14;" vertex="1" parent="1">
          <mxGeometry x="1690" y="584" width="74" height="72" as="geometry" />
        </mxCell>
        <mxCell id="DtBhPyc8xqR74ojFfDN1-11" value="Transport&lt;div&gt;service&lt;/div&gt;" style="shadow=0;dashed=0;html=1;strokeColor=none;fillColor=#4495D1;labelPosition=right;verticalLabelPosition=middle;verticalAlign=middle;shape=mxgraph.veeam.2d.data_mover;fontSize=14;align=left;" vertex="1" parent="1">
          <mxGeometry x="1058.5" y="408" width="38" height="38" as="geometry" />
        </mxCell>
        <mxCell id="DtBhPyc8xqR74ojFfDN1-12" value="Transport&lt;div&gt;service&lt;/div&gt;" style="shadow=0;dashed=0;html=1;strokeColor=none;fillColor=#4495D1;labelPosition=left;verticalLabelPosition=middle;verticalAlign=middle;shape=mxgraph.veeam.2d.data_mover;fontSize=14;align=right;" vertex="1" parent="1">
          <mxGeometry x="1538.5" y="408" width="38" height="38" as="geometry" />
        </mxCell>
        <mxCell id="DtBhPyc8xqR74ojFfDN1-13" value="" style="pointerEvents=1;shadow=0;dashed=0;html=1;strokeColor=none;fillColor=#4495D1;labelPosition=center;verticalLabelPosition=bottom;verticalAlign=top;align=center;outlineConnect=0;shape=mxgraph.veeam.virtual_host;" vertex="1" parent="1">
          <mxGeometry x="1288.5" y="335" width="128" height="120" as="geometry" />
        </mxCell>
        <mxCell id="DtBhPyc8xqR74ojFfDN1-14" value="" style="shadow=0;dashed=0;html=1;strokeColor=none;fillColor=#4495D1;labelPosition=center;verticalLabelPosition=bottom;verticalAlign=top;shape=mxgraph.veeam.2d.backup_repository_2;fontSize=14;" vertex="1" parent="1">
          <mxGeometry x="1560" y="331" width="58" height="50" as="geometry" />
        </mxCell>
        <mxCell id="DtBhPyc8xqR74ojFfDN1-15" value="ProxMox&amp;nbsp;&lt;div&gt;backup&amp;nbsp;&lt;span&gt;proxy&lt;/span&gt;&lt;/div&gt;" style="shadow=0;dashed=0;html=1;strokeColor=none;fillColor=#4495D1;labelPosition=center;verticalLabelPosition=top;verticalAlign=bottom;shape=mxgraph.veeam.2d.proxy;fontSize=14;align=center;" vertex="1" parent="1">
          <mxGeometry x="1030" y="339" width="46" height="46" as="geometry" />
        </mxCell>
        <mxCell id="DtBhPyc8xqR74ojFfDN1-16" style="rounded=0;html=1;startSize=10;endSize=10;jettySize=auto;orthogonalLoop=1;fontSize=14;endArrow=none;endFill=0;strokeColor=#808080;exitX=0.037;exitY=0.89;exitDx=0;exitDy=0;exitPerimeter=0;entryX=0.727;entryY=0.152;entryDx=0;entryDy=0;entryPerimeter=0;" edge="1" parent="1" source="DtBhPyc8xqR74ojFfDN1-15" target="JXPg3g7SItw_KYU3tw7w-31">
          <mxGeometry relative="1" as="geometry">
            <mxPoint x="865.2016129032263" y="391" as="sourcePoint" />
            <mxPoint x="954.7983870967737" y="593" as="targetPoint" />
          </mxGeometry>
        </mxCell>
        <mxCell id="DtBhPyc8xqR74ojFfDN1-30" value="Production site 3" style="whiteSpace=wrap;html=1;fillColor=#dae8fc;fontSize=14;strokeColor=none;verticalAlign=bottom;" vertex="1" parent="1">
          <mxGeometry x="988.5" y="643" width="660" height="260" as="geometry" />
        </mxCell>
        <mxCell id="DtBhPyc8xqR74ojFfDN1-31" style="edgeStyle=elbowEdgeStyle;rounded=0;html=1;startSize=10;endSize=10;jettySize=auto;orthogonalLoop=1;fontSize=14;endArrow=none;endFill=0;strokeColor=#808080;elbow=vertical;" edge="1" parent="1" target="DtBhPyc8xqR74ojFfDN1-33">
          <mxGeometry relative="1" as="geometry">
            <mxPoint x="1063.500000000001" y="714.6666666666667" as="sourcePoint" />
          </mxGeometry>
        </mxCell>
        <mxCell id="DtBhPyc8xqR74ojFfDN1-32" style="edgeStyle=elbowEdgeStyle;rounded=0;html=1;startSize=10;endSize=10;jettySize=auto;orthogonalLoop=1;fontSize=14;endArrow=none;endFill=0;strokeColor=#808080;elbow=vertical;" edge="1" parent="1" source="DtBhPyc8xqR74ojFfDN1-33">
          <mxGeometry relative="1" as="geometry">
            <mxPoint x="1558.5" y="713" as="targetPoint" />
          </mxGeometry>
        </mxCell>
        <mxCell id="DtBhPyc8xqR74ojFfDN1-33" value="Source ESX host" style="shadow=0;dashed=0;html=1;strokeColor=none;fillColor=#4495D1;labelPosition=center;verticalLabelPosition=top;verticalAlign=bottom;shape=mxgraph.veeam.2d.vmware_host;fontSize=14;align=center;" vertex="1" parent="1">
          <mxGeometry x="1278.5" y="690" width="124" height="120" as="geometry" />
        </mxCell>
        <mxCell id="DtBhPyc8xqR74ojFfDN1-35" style="edgeStyle=orthogonalEdgeStyle;rounded=0;html=1;startSize=10;endSize=10;jettySize=auto;orthogonalLoop=1;fontSize=14;endArrow=none;endFill=0;strokeColor=#808080;" edge="1" parent="1" source="DtBhPyc8xqR74ojFfDN1-37" target="DtBhPyc8xqR74ojFfDN1-33">
          <mxGeometry relative="1" as="geometry">
            <Array as="points">
              <mxPoint x="1205.5" y="853" />
              <mxPoint x="1341.5" y="853" />
            </Array>
          </mxGeometry>
        </mxCell>
        <mxCell id="DtBhPyc8xqR74ojFfDN1-36" style="edgeStyle=orthogonalEdgeStyle;rounded=0;html=1;entryX=0.202;entryY=1.004;entryPerimeter=0;startSize=10;endSize=10;jettySize=auto;orthogonalLoop=1;fontSize=14;endArrow=none;endFill=0;strokeColor=#808080;" edge="1" parent="1" source="DtBhPyc8xqR74ojFfDN1-37">
          <mxGeometry relative="1" as="geometry">
            <Array as="points">
              <mxPoint x="1252.5" y="853" />
              <mxPoint x="1581.5" y="853" />
              <mxPoint x="1581.5" y="737" />
            </Array>
            <mxPoint x="1567.7920000000004" y="736.184" as="targetPoint" />
          </mxGeometry>
        </mxCell>
        <mxCell id="DtBhPyc8xqR74ojFfDN1-37" value="Veeam backup server" style="shadow=0;dashed=0;html=1;strokeColor=none;fillColor=#4495D1;labelPosition=center;verticalLabelPosition=bottom;verticalAlign=top;shape=mxgraph.veeam.2d.veeam_backup_and_replication_server;fontSize=14;" vertex="1" parent="1">
          <mxGeometry x="1680" y="939" width="74" height="72" as="geometry" />
        </mxCell>
        <mxCell id="DtBhPyc8xqR74ojFfDN1-38" value="Transport&lt;div&gt;service&lt;/div&gt;" style="shadow=0;dashed=0;html=1;strokeColor=none;fillColor=#4495D1;labelPosition=right;verticalLabelPosition=middle;verticalAlign=middle;shape=mxgraph.veeam.2d.data_mover;fontSize=14;align=left;" vertex="1" parent="1">
          <mxGeometry x="1048.5" y="763" width="38" height="38" as="geometry" />
        </mxCell>
        <mxCell id="DtBhPyc8xqR74ojFfDN1-39" value="Transport&lt;div&gt;service&lt;/div&gt;" style="shadow=0;dashed=0;html=1;strokeColor=none;fillColor=#4495D1;labelPosition=left;verticalLabelPosition=middle;verticalAlign=middle;shape=mxgraph.veeam.2d.data_mover;fontSize=14;align=right;" vertex="1" parent="1">
          <mxGeometry x="1528.5" y="763" width="38" height="38" as="geometry" />
        </mxCell>
        <mxCell id="DtBhPyc8xqR74ojFfDN1-40" value="" style="pointerEvents=1;shadow=0;dashed=0;html=1;strokeColor=none;fillColor=#4495D1;labelPosition=center;verticalLabelPosition=bottom;verticalAlign=top;align=center;outlineConnect=0;shape=mxgraph.veeam.virtual_host;" vertex="1" parent="1">
          <mxGeometry x="1278.5" y="690" width="128" height="120" as="geometry" />
        </mxCell>
        <mxCell id="DtBhPyc8xqR74ojFfDN1-41" value="" style="shadow=0;dashed=0;html=1;strokeColor=none;fillColor=#4495D1;labelPosition=center;verticalLabelPosition=bottom;verticalAlign=top;shape=mxgraph.veeam.2d.backup_repository_2;fontSize=14;" vertex="1" parent="1">
          <mxGeometry x="1550" y="686" width="58" height="50" as="geometry" />
        </mxCell>
        <mxCell id="DtBhPyc8xqR74ojFfDN1-42" value="ProxMox&amp;nbsp;&lt;div&gt;backup&amp;nbsp;&lt;span&gt;proxy&lt;/span&gt;&lt;/div&gt;" style="shadow=0;dashed=0;html=1;strokeColor=none;fillColor=#4495D1;labelPosition=center;verticalLabelPosition=top;verticalAlign=bottom;shape=mxgraph.veeam.2d.proxy;fontSize=14;align=center;" vertex="1" parent="1">
          <mxGeometry x="1020" y="694" width="46" height="46" as="geometry" />
        </mxCell>
        <mxCell id="DtBhPyc8xqR74ojFfDN1-43" value="" style="line;strokeWidth=3;html=1;fillColor=none;gradientColor=none;fontSize=14;strokeColor=#808080;" vertex="1" parent="1">
          <mxGeometry x="300" y="847" width="1280" height="10" as="geometry" />
        </mxCell>
        <mxCell id="DtBhPyc8xqR74ojFfDN1-45" style="rounded=0;html=1;startSize=10;endSize=10;jettySize=auto;orthogonalLoop=1;fontSize=14;endArrow=none;endFill=0;strokeColor=#808080;" edge="1" parent="1">
          <mxGeometry relative="1" as="geometry">
            <mxPoint x="1017.803738317757" y="690.0000000000002" as="sourcePoint" />
            <mxPoint x="972.196261682243" y="629" as="targetPoint" />
          </mxGeometry>
        </mxCell>
      </root>
    </mxGraphModel>
  </diagram>
</mxfile>
